<?xml version="1.0" standalone="no"?>
<!DOCTYPE svg PUBLIC "-//W3C//DTD SVG 20010904//EN"
 "http://www.w3.org/TR/2001/REC-SVG-20010904/DTD/svg10.dtd">
<svg version="1.0" xmlns="http://www.w3.org/2000/svg"
 width="128.000000pt" height="128.000000pt" viewBox="0 0 128.000000 128.000000"
 preserveAspectRatio="xMidYMid meet">
<metadata>
Created by potrace 1.14, written by Peter Selinger 2001-2017
</metadata>
<g transform="translate(0.000000,128.000000) scale(0.100000,-0.100000)"
fill="#000000" stroke="none">
<path d="M505 1230 c-175 -45 -303 -137 -389 -279 -70 -114 -91 -198 -88 -345
4 -184 82 -328 246 -458 182 -144 449 -163 667 -46 177 93 319 317 320 503 2
185 -49 320 -166 440 -79 81 -141 123 -235 159 -122 45 -245 54 -355 26z m248
-65 c136 -28 284 -131 360 -251 55 -88 71 -150 71 -284 1 -124 1 -126 -35
-200 -109 -228 -287 -337 -539 -331 -148 3 -296 80 -403 211 -165 199 -144
509 48 703 125 128 322 188 498 152z"/>
<path d="M709 877 c-211 -171 -239 -194 -239 -201 0 -3 42 -5 94 -4 75 0 98 4
109 17 28 32 226 331 219 331 -4 -1 -86 -65 -183 -143z"/>
<path d="M527 515 c-34 -49 -85 -126 -115 -170 -29 -43 -56 -84 -59 -89 -7
-10 61 39 85 62 8 7 30 25 50 40 21 15 42 32 49 38 6 6 66 55 132 109 67 54
121 98 121 99 0 1 -46 1 -101 1 l-102 0 -60 -90z"/>
</g>
</svg>
